HIERARCHY
ROOT joint_Root
{
	OFFSET 0.0 0.0 0.0
	CHANNELS 6 Xposition Yposition Zposition Zrotation Xrotation Yrotation 
	JOINT Hips
	{
		OFFSET 4.5925 91.4895 -427.239
		CHANNELS 6 Xposition Yposition Zposition Zrotation Xrotation Yrotation 
		JOINT Spine
		{
			OFFSET 15.7357 0.0 0.0
			CHANNELS 6 Xposition Yposition Zposition Zrotation Xrotation Yrotation 
			JOINT Chest
			{
				OFFSET 8.98455 -0.406207 0.0
				CHANNELS 6 Xposition Yposition Zposition Zrotation Xrotation Yrotation 
				JOINT Neck
				{
					OFFSET 16.3773 0.0 0.0
					CHANNELS 6 Xposition Yposition Zposition Zrotation Xrotation Yrotation 
					JOINT Head
					{
						OFFSET 6.45672 0.0 0.0
						CHANNELS 6 Xposition Yposition Zposition Zrotation Xrotation Yrotation 
						End Site
						{
							OFFSET 0.0 0.0 0.0
						}
					}
				}
				JOINT Shoulder_L
				{
					OFFSET 12.9942 -0.242716 4.98039
					CHANNELS 6 Xposition Yposition Zposition Zrotation Xrotation Yrotation 
					JOINT UpperArm_L
					{
						OFFSET 5.34809 0.0 0.0
						CHANNELS 6 Xposition Yposition Zposition Zrotation Xrotation Yrotation 
						JOINT LowerArm_L
						{
							OFFSET 24.3286 1.87007e-05 0.0
							CHANNELS 6 Xposition Yposition Zposition Zrotation Xrotation Yrotation 
							JOINT Hand_L
							{
								OFFSET 22.2916 0.0 0.0
								CHANNELS 6 Xposition Yposition Zposition Zrotation Xrotation Yrotation 
								End Site
								{
									OFFSET 0.0 0.0 0.0
								}
							}
						}
					}
				}
				JOINT Shoulder_R
				{
					OFFSET 12.9945 -0.242716 -4.98039
					CHANNELS 6 Xposition Yposition Zposition Zrotation Xrotation Yrotation 
					JOINT UpperArm_R
					{
						OFFSET -5.34813 0.0 0.0
						CHANNELS 6 Xposition Yposition Zposition Zrotation Xrotation Yrotation 
						JOINT LowerArm_R
						{
							OFFSET -24.3289 0.000322201 0.0
							CHANNELS 6 Xposition Yposition Zposition Zrotation Xrotation Yrotation 
							JOINT Hand_R
							{
								OFFSET -22.2915 -0.000108084 0.0
								CHANNELS 6 Xposition Yposition Zposition Zrotation Xrotation Yrotation 
								End Site
								{
									OFFSET 0.0 0.0 0.0
								}
							}
						}
					}
				}
			}
		}
		JOINT UpperLeg_L
		{
			OFFSET -2.19248 -6.46944 0.0
			CHANNELS 6 Xposition Yposition Zposition Zrotation Xrotation Yrotation 
			JOINT LowerLeg_L
			{
				OFFSET 39.0811 0.0 -1.23785e-05
				CHANNELS 6 Xposition Yposition Zposition Zrotation Xrotation Yrotation 
				JOINT Foot_L
				{
					OFFSET 40.9854 0.0 -1.26872e-05
					CHANNELS 6 Xposition Yposition Zposition Zrotation Xrotation Yrotation 
					JOINT Toes_L
					{
						OFFSET 11.7543 0.0 0.0
						CHANNELS 6 Xposition Yposition Zposition Zrotation Xrotation Yrotation 
						End Site
						{
							OFFSET 0.0 0.0 0.0
						}
					}
				}
			}
		}
		JOINT UpperLeg_R
		{
			OFFSET -2.19251 6.46944 0.0
			CHANNELS 6 Xposition Yposition Zposition Zrotation Xrotation Yrotation 
			JOINT LowerLeg_R
			{
				OFFSET -39.0811 -0.00228153 -0.0401928
				CHANNELS 6 Xposition Yposition Zposition Zrotation Xrotation Yrotation 
				JOINT Foot_R
				{
					OFFSET -40.9854 0.0 0.0
					CHANNELS 6 Xposition Yposition Zposition Zrotation Xrotation Yrotation 
					JOINT Toes_R
					{
						OFFSET -11.7543 0.0 0.0
						CHANNELS 6 Xposition Yposition Zposition Zrotation Xrotation Yrotation 
						End Site
						{
							OFFSET 0.0 0.0 0.0
						}
					}
				}
			}
		}
	}
}
MOTION
Frames:	5
Frame Time:	0.0333333
0.000000 0.000000 0.000000 0.000000 0.000000 -0.000000 -2.263230 90.702800 -5.004310 88.609200 0.260897 11.459700 15.735700 0.000005 -0.000001 86.929000 74.686300 -87.729500 8.984550 -0.406207 -0.000000 22.812700 -1.698160 -1.266210 16.377300 -0.000001 -0.000001 13.689900 -4.711820 1.192880 6.456720 -0.000001 -0.000000 -9.873740 -3.484860 -3.972410 12.994200 -0.242716 4.980390 -91.296900 6.857880 -79.264800 5.348090 -0.000007 -0.000001 -53.772100 33.109800 -32.162200 24.328600 0.000019 0.000005 10.215900 22.711700 -25.021300 22.291600 -0.000001 0.000005 11.096700 5.244550 1.576380 12.994500 -0.242716 -4.980390 89.439800 2.804740 -78.699400 -5.348130 -0.000001 -0.000004 -71.958800 -11.101900 -74.774700 -24.328900 0.000322 -0.000009 17.377500 -5.226550 -106.230000 -22.291500 -0.000108 -0.000004 27.763500 5.273100 0.814289 -2.192480 -6.469440 -0.000000 -172.416000 -12.995800 -4.043630 39.081100 -0.000007 -0.000012 -0.160204 0.247490 32.915800 40.985400 -0.000006 -0.000013 -0.646259 6.305340 -66.906300 11.754300 -0.000000 0.000003 -0.000158 -0.001521 -16.635300 -2.192510 6.469440 -0.000001 174.997000 26.265900 178.905000 -39.081100 -0.002282 -0.040193 -0.188900 0.311843 31.646900 -40.985400 0.000008 0.000006 5.056850 14.499500 -68.688500 -11.754300 -0.000006 -0.000006 -0.002484 -0.034625 -17.981100
0.000000 0.000000 0.000000 0.000000 0.000000 -0.000000 -2.277800 90.700300 -5.013750 88.581600 0.217468 11.461400 15.735700 0.000005 -0.000001 86.920000 74.677600 -87.713700 8.984550 -0.406207 -0.000000 22.829900 -1.702930 -1.251490 16.377300 -0.000001 -0.000001 13.718900 -4.712160 1.188730 6.456720 -0.000001 -0.000000 -9.865640 -3.471930 -3.948240 12.994200 -0.242716 4.980390 -91.299100 6.861260 -79.252000 5.348090 -0.000007 -0.000001 -53.826500 33.104900 -32.151900 24.328600 0.000019 0.000005 10.282700 22.806200 -25.081200 22.291600 -0.000001 0.000005 11.079600 5.243860 1.594560 12.994500 -0.242716 -4.980390 89.443600 2.777640 -78.667400 -5.348130 -0.000001 -0.000004 -71.995100 -11.016300 -74.929400 -24.328900 0.000322 -0.000009 17.465900 -5.226070 -106.145000 -22.291500 -0.000108 -0.000004 27.759500 5.271720 0.851469 -2.192480 -6.469440 -0.000000 -172.367000 -13.013100 -4.054620 39.081100 -0.000007 -0.000012 -0.161967 0.250000 32.938200 40.985400 -0.000006 -0.000013 -0.653825 6.327720 -66.910600 11.754300 -0.000000 0.000003 -0.000157 -0.001508 -16.634800 -2.192510 6.469440 -0.000001 175.051000 26.203400 178.888000 -39.081100 -0.002282 -0.040193 -0.186593 0.308113 31.645900 -40.985400 0.000008 0.000006 5.064090 14.501400 -68.680400 -11.754300 -0.000006 -0.000006 -0.002410 -0.033741 -17.945200
0.000000 0.000000 0.000000 0.000000 0.000000 -0.000000 -2.283400 90.699700 -5.030060 88.592800 0.204827 11.459300 15.735700 0.000005 -0.000001 86.902000 74.673800 -87.700500 8.984550 -0.406207 -0.000000 22.836900 -1.713280 -1.258800 16.377300 -0.000001 -0.000001 13.751100 -4.729100 1.214580 6.456720 -0.000001 -0.000000 -9.902250 -3.487520 -3.933380 12.994200 -0.242716 4.980390 -91.291700 6.838310 -79.277000 5.348090 -0.000007 -0.000001 -53.846200 33.175700 -32.172800 24.328600 0.000019 0.000005 10.294000 22.815900 -25.097200 22.291600 -0.000001 0.000005 11.022100 5.242310 1.635130 12.994500 -0.242716 -4.980390 89.452200 2.734110 -78.666900 -5.348130 -0.000001 -0.000004 -72.014500 -11.013500 -75.058800 -24.328900 0.000322 -0.000009 17.472300 -5.223420 -106.132000 -22.291500 -0.000108 -0.000004 27.779500 5.268350 0.942732 -2.192480 -6.469440 -0.000000 -172.380000 -13.011900 -4.064860 39.081100 -0.000007 -0.000012 -0.160879 0.248342 32.936100 40.985400 -0.000006 -0.000013 -0.667699 6.283810 -66.898000 11.754300 -0.000000 0.000003 -0.000156 -0.001500 -16.634500 -2.192510 6.469440 -0.000001 175.047000 26.218800 178.867000 -39.081100 -0.002282 -0.040193 -0.191110 0.315279 31.659200 -40.985400 0.000008 0.000006 5.077190 14.508200 -68.678200 -11.754300 -0.000006 -0.000006 -0.002469 -0.034442 -17.973700
0.000000 0.000000 0.000000 0.000000 0.000000 -0.000000 -2.288510 90.701700 -5.031020 88.600700 0.189884 11.452200 15.735700 0.000005 -0.000001 86.900900 74.669000 -87.697700 8.984550 -0.406207 -0.000000 22.846400 -1.714180 -1.255110 16.377300 -0.000001 -0.000001 13.730500 -4.733260 1.256200 6.456720 -0.000001 -0.000000 -9.895340 -3.481890 -3.959280 12.994200 -0.242716 4.980390 -91.293900 6.856970 -79.287700 5.348090 -0.000007 -0.000001 -53.842500 33.248000 -32.223500 24.328600 0.000019 0.000005 10.268600 22.795000 -25.060700 22.291600 -0.000001 0.000005 11.070200 5.242550 1.628780 12.994500 -0.242716 -4.980390 89.452600 2.722740 -78.628800 -5.348130 -0.000001 -0.000004 -72.012000 -10.980200 -75.227500 -24.328900 0.000322 -0.000009 17.456600 -5.209120 -106.104000 -22.291500 -0.000108 -0.000004 27.756000 5.271530 0.856934 -2.192480 -6.469440 -0.000000 -172.388000 -13.030400 -4.064350 39.081100 -0.000007 -0.000012 -0.158160 0.244272 32.922200 40.985400 -0.000006 -0.000013 -0.664709 6.295220 -66.890300 11.754300 -0.000000 0.000003 -0.000155 -0.001495 -16.634300 -2.192510 6.469440 -0.000001 175.056000 26.192800 178.850000 -39.081100 -0.002282 -0.040193 -0.187325 0.309190 31.655100 -40.985400 0.000008 0.000006 5.077780 14.502600 -68.670100 -11.754300 -0.000006 -0.000006 -0.002559 -0.035512 -18.017200
0.000000 0.000000 0.000000 0.000000 0.000000 -0.000000 -2.294380 90.706700 -5.042490 88.610100 0.220554 11.454300 15.735700 0.000005 -0.000001 86.885000 74.673600 -87.678600 8.984550 -0.406207 -0.000000 22.836900 -1.721500 -1.247380 16.377300 -0.000001 -0.000001 13.734200 -4.806000 1.303860 6.456720 -0.000001 -0.000000 -9.898840 -3.474970 -3.957530 12.994200 -0.242716 4.980390 -91.290600 6.861690 -79.321000 5.348090 -0.000007 -0.000001 -53.869000 33.320400 -32.207700 24.328600 0.000019 0.000005 10.245700 22.716200 -25.082600 22.291600 -0.000001 0.000005 11.063500 5.242570 1.628200 12.994500 -0.242716 -4.980390 89.454500 2.703040 -78.586300 -5.348130 -0.000001 -0.000004 -72.013200 -10.975800 -75.304400 -24.328900 0.000322 -0.000009 17.442000 -5.200150 -106.092000 -22.291500 -0.000108 -0.000004 27.794800 5.272020 0.843483 -2.192480 -6.469440 -0.000000 -172.403000 -12.998600 -4.059150 39.081100 -0.000007 -0.000012 -0.158329 0.244821 32.891600 40.985400 -0.000006 -0.000013 -0.678185 6.261400 -66.865000 11.754300 -0.000000 0.000003 -0.000166 -0.001586 -16.637700 -2.192510 6.469440 -0.000001 175.038000 26.245800 178.871000 -39.081100 -0.002282 -0.040193 -0.186893 0.308746 31.633800 -40.985400 0.000008 0.000006 5.089470 14.526500 -68.666600 -11.754300 -0.000006 -0.000006 -0.002414 -0.033786 -17.947000
